#N canvas 0 0 1366 685 10;
#X obj 257 312 hradio 15 0 0 12 empty empty TEST 0 -8 0 12 -249585
-1 -1 4;
#X floatatom 257 339 5 0 0 0 - - -;
#X obj 368 192 + 1;
#X floatatom 296 231 5 0 0 0 - - -;
#X msg 320 66 1;
#X obj 296 153 bng 15 250 50 0 empty empty empty 17 7 0 10 -262144
-1 -1;
#X obj 296 131 metro 500;
#X msg 219 71 stop;
#X obj 296 193 float;
#X obj 332 272 % 12;
#X msg 365 235 60;
#X msg 219 105 0;
#X floatatom 219 242 5 0 0 0 - - -;
#X obj 320 37 loadbang;
#X text 0 243 still under development;
#X msg 25 292 spi_init 0 1e+006;
#X obj 29 319 wiringPi;
#X msg 17 267 load_spi_driver;
#X msg 36 111 \; pd dsp \$1;
#X obj 36 63 loadbang;
#X msg 36 88 1;
#X obj 514 435 select 0 1 2 3 4 5 6 7 8 9 10 11;
#X obj 498 600 tgl 15 0 empty empty empty 17 7 0 10 -262144 -1 -1 0
1;
#X obj 641 604 tgl 15 0 empty empty empty 17 7 0 10 -262144 -1 -1 0
1;
#X obj 783 607 tgl 15 0 empty empty empty 17 7 0 10 -262144 -1 -1 0
1;
#X obj 920 610 tgl 15 0 empty empty empty 17 7 0 10 -262144 -1 -1 0
1;
#X obj -70 602 tgl 15 0 empty empty empty 17 7 0 10 -262144 -1 -1 0
1;
#X obj 71 604 tgl 15 0 empty empty empty 17 7 0 10 -262144 -1 -1 0
1;
#X obj 217 606 tgl 15 0 empty empty empty 17 7 0 10 -262144 -1 -1 0
1;
#X obj 358 603 tgl 15 0 empty empty empty 17 7 0 10 -262144 -1 -1 0
1;
#X msg 330 467 0;
#X obj 330 445 bng 15 250 50 0 empty empty empty 17 7 0 10 -262144
-1 -1;
#X obj 18 213 loadbang;
#X obj 102 210 delay 50;
#X obj 865 289 textfile;
#X msg 886 207 rewind;
#X obj 1020 224 f;
#X obj 1054 223 + 1;
#X floatatom 816 340 5 0 0 0 - - -;
#X obj 930 327 bng 15 250 50 0 empty empty empty 17 7 0 10 -262144
-1 -1;
#X obj 732 164 until;
#X floatatom 732 57 5 0 0 0 - - -;
#X msg 732 76 set \$1;
#X obj 732 101 t b f;
#X obj 900 398 pack f f;
#X obj 995 117 t b b;
#X obj 860 112 loadbang;
#X obj 860 134 t b b;
#X msg 1025 154 -1;
#X floatatom 993 473 5 0 0 0 - - -;
#X floatatom 1064 476 5 0 0 0 - - -;
#X obj 834 110 bng 15 250 50 0 empty empty empty 17 7 0 10 -262144
-1 -1;
#X text 713 28 1ere valeur=nombre de parametres;
#X msg 732 132 10;
#X obj 1011 435 route 0 1 2 3 4 5 6 7 8 9 10 11;
#X obj 942 83 bng 15 250 50 0 empty empty empty 17 7 0 10 -262144 -1
-1;
#X obj 910 54 metro 1;
#X obj 993 498 send metro;
#X floatatom 447 -40 5 0 0 0 - - -;
#X msg 406 -2 60000;
#X floatatom 432 60 10 0 0 0 - - -;
#X obj 432 36 /;
#X obj 406 -24 bng 15 250 50 0 empty empty empty 17 7 0 10 -262144
-1 -1;
#X obj 447 -66 receive metro;
#X text 361 129 1er paramètre modifiable;
#X text 168 423 2ème paramètre modifiable;
#X floatatom 598 82 5 0 0 0 - - -;
#X floatatom 597 210 5 0 0 0 - - -;
#X obj 598 176 /;
#X obj 1064 501 send control;
#X obj 597 55 receive control;
#X obj 561 114 bng 15 250 50 0 empty empty empty 17 7 0 10 -262144
-1 -1;
#X msg 561 137 100;
#X obj 490 169 loadbang;
#X obj 598 272 *;
#X obj 447 102 s test;
#X obj 645 234 r test;
#X floatatom 598 298 5 0 0 0 - - -;
#X obj 499 100 s test1;
#X obj 435 235 r test1;
#X floatatom 530 312 5 0 0 0 - - -;
#X floatatom 600 384 10 0 0 0 - - -;
#X obj 600 361 -;
#X msg 844 171 read set.txt;
#X msg 1146 -39 0;
#X obj 555 275 bng 15 250 50 0 empty empty empty 17 7 0 10 -262144
-1 -1;
#X obj 517 247 delay 50;
#X obj 330 423 delay \$1;
#X text -26 646 do;
#X text 105 645 do#;
#X text 245 646 ré;
#X text 549 647 mi;
#X text 694 646 fa;
#X text 834 649 fa#;
#X text 965 649 sol;
#X text 1076 650 sol#;
#X text 408 647 ré#;
#X obj -70 625 wiringPi pin 5 output;
#X obj 71 626 wiringPi pin 6 output;
#X obj 217 627 wiringPi pin 13 output;
#X obj 358 627 wiringPi pin 19 output;
#X obj 499 627 wiringPi pin 26 output;
#X obj 642 627 wiringPi pin 25 output;
#X obj 783 630 wiringPi pin 8 output;
#X obj 920 631 wiringPi pin 7 output;
#X obj 1057 609 tgl 15 0 empty empty empty 17 7 0 10 -262144 -1 -1
0 1;
#X obj 1057 630 wiringPi pin 12 output;
#X obj 367 724 tgl 15 0 empty empty empty 17 7 0 10 -262144 -1 -1 0
1;
#X obj 367 745 wiringPi pin 16 output;
#X obj 539 725 tgl 15 0 empty empty empty 17 7 0 10 -262144 -1 -1 0
1;
#X obj 539 746 wiringPi pin 20 output;
#X obj 700 726 tgl 15 0 empty empty empty 17 7 0 10 -262144 -1 -1 0
1;
#X obj 700 747 wiringPi pin 21 output;
#X text 386 765 la;
#X text 558 766 la#;
#X text 719 767 si;
#X obj 123 -52 adc~;
#X obj 124 -10 dac~;
#X connect 0 0 1 0;
#X connect 1 0 21 0;
#X connect 2 0 8 1;
#X connect 3 0 9 0;
#X connect 4 0 6 0;
#X connect 4 0 11 0;
#X connect 5 0 8 0;
#X connect 6 0 5 0;
#X connect 6 0 87 0;
#X connect 7 0 6 0;
#X connect 7 0 11 0;
#X connect 8 0 2 0;
#X connect 8 0 3 0;
#X connect 9 0 12 0;
#X connect 10 0 9 0;
#X connect 11 0 8 0;
#X connect 11 0 12 0;
#X connect 12 0 0 0;
#X connect 13 0 4 0;
#X connect 15 0 16 0;
#X connect 17 0 16 0;
#X connect 19 0 20 0;
#X connect 20 0 18 0;
#X connect 21 0 26 0;
#X connect 21 1 27 0;
#X connect 21 2 28 0;
#X connect 21 3 29 0;
#X connect 21 4 22 0;
#X connect 21 5 23 0;
#X connect 21 6 24 0;
#X connect 21 7 25 0;
#X connect 21 8 105 0;
#X connect 21 9 107 0;
#X connect 21 10 109 0;
#X connect 21 11 111 0;
#X connect 22 0 101 0;
#X connect 23 0 102 0;
#X connect 24 0 103 0;
#X connect 25 0 104 0;
#X connect 26 0 97 0;
#X connect 27 0 98 0;
#X connect 28 0 99 0;
#X connect 29 0 100 0;
#X connect 30 0 26 0;
#X connect 30 0 27 0;
#X connect 30 0 28 0;
#X connect 30 0 29 0;
#X connect 30 0 22 0;
#X connect 30 0 23 0;
#X connect 30 0 24 0;
#X connect 30 0 25 0;
#X connect 30 0 105 0;
#X connect 30 0 107 0;
#X connect 30 0 109 0;
#X connect 30 0 111 0;
#X connect 31 0 30 0;
#X connect 32 0 33 0;
#X connect 32 0 17 0;
#X connect 33 0 15 0;
#X connect 34 0 38 0;
#X connect 34 0 44 1;
#X connect 34 1 39 0;
#X connect 35 0 34 0;
#X connect 36 0 37 0;
#X connect 37 0 36 1;
#X connect 37 0 44 0;
#X connect 40 0 55 0;
#X connect 41 0 42 0;
#X connect 42 0 43 0;
#X connect 43 0 53 0;
#X connect 43 1 53 0;
#X connect 44 0 54 0;
#X connect 45 0 36 0;
#X connect 45 1 34 0;
#X connect 46 0 47 0;
#X connect 46 0 56 0;
#X connect 47 0 35 0;
#X connect 47 1 83 0;
#X connect 47 1 48 0;
#X connect 48 0 36 1;
#X connect 49 0 57 0;
#X connect 50 0 69 0;
#X connect 51 0 47 0;
#X connect 53 0 40 0;
#X connect 54 0 49 0;
#X connect 54 1 50 0;
#X connect 54 2 84 0;
#X connect 55 0 45 0;
#X connect 56 0 55 0;
#X connect 58 0 61 1;
#X connect 58 0 62 0;
#X connect 59 0 61 0;
#X connect 60 0 6 1;
#X connect 60 0 75 0;
#X connect 60 0 78 0;
#X connect 61 0 60 0;
#X connect 62 0 59 0;
#X connect 63 0 58 0;
#X connect 66 0 71 0;
#X connect 66 0 68 0;
#X connect 67 0 74 0;
#X connect 68 0 67 0;
#X connect 70 0 66 0;
#X connect 71 0 72 0;
#X connect 72 0 68 1;
#X connect 73 0 68 0;
#X connect 73 0 68 1;
#X connect 73 0 74 0;
#X connect 73 0 74 1;
#X connect 73 0 86 0;
#X connect 74 0 77 0;
#X connect 76 0 74 1;
#X connect 77 0 82 1;
#X connect 79 0 80 0;
#X connect 80 0 82 0;
#X connect 81 0 87 1;
#X connect 82 0 81 0;
#X connect 83 0 34 0;
#X connect 84 0 56 0;
#X connect 85 0 82 0;
#X connect 86 0 85 0;
#X connect 87 0 31 0;
#X connect 105 0 106 0;
#X connect 107 0 108 0;
#X connect 109 0 110 0;
#X connect 111 0 112 0;
#X connect 116 0 117 0;
#X connect 116 1 117 1;
