#N canvas 676 0 681 676 10;
#X obj 247 302 hradio 15 0 0 12 empty empty TEST 0 -8 0 12 -249585
-1 -1 6;
#X floatatom 247 329 5 0 0 0 - - -;
#X obj 358 182 + 1;
#X floatatom 286 221 5 0 0 0 - - -;
#X msg 310 56 1;
#X obj 286 143 bng 15 250 50 0 empty empty empty 17 7 0 10 -262144
-1 -1;
#X obj 286 121 metro 500;
#X msg 209 61 stop;
#X obj 286 183 float;
#X obj 322 262 % 12;
#X msg 355 225 60;
#X msg 209 95 0;
#X floatatom 209 232 5 0 0 0 - - -;
#X obj 310 27 loadbang;
#X text -10 233 still under development;
#X msg 15 282 spi_init 0 1e+006;
#X obj 19 309 wiringPi;
#X msg 7 257 load_spi_driver;
#X msg 26 101 \; pd dsp \$1;
#X obj 26 53 loadbang;
#X msg 26 78 1;
#X text 14 655 do et do#;
#X text 234 658 ré et ré#;
#X text 403 660 mi et fa;
#X text 768 671 fa# et sol;
#X text 925 664 sol# et la;
#X text 1110 669 la# et si;
#X text 317 786 Il sort du 5 V pour activisé do# re# fa sol la si
;
#X text 768 786 Il sort du 5v pour activer do ré mi fa# sol# la#;
#X obj 191 621 wiringPi pin 19 output;
#X obj 365 621 wiringPi pin 26 output;
#X obj 741 630 wiringPi pin 16 output;
#X obj 900 630 wiringPi pin 20 output;
#X obj 743 758 wiringPi pin 6 output;
#X obj 504 425 select 0 1 2 3 4 5 6 7 8 9 10 11;
#X obj 899 603 tgl 15 0 empty empty empty 17 7 0 10 -262144 -1 -1 0
1;
#X obj 1076 610 tgl 15 0 empty empty empty 17 7 0 10 -262144 -1 -1
0 1;
#X obj 508 729 tgl 15 0 empty empty empty 17 7 0 10 -262144 -1 -1 0
1;
#X obj 746 725 tgl 15 0 empty empty empty 17 7 0 10 -262144 -1 -1 1
1;
#X obj 26 597 tgl 15 0 empty empty empty 17 7 0 10 -262144 -1 -1 0
1;
#X obj 190 593 tgl 15 0 empty empty empty 17 7 0 10 -262144 -1 -1 0
1;
#X obj 360 596 tgl 15 0 empty empty empty 17 7 0 10 -262144 -1 -1 0
1;
#X obj 743 603 tgl 15 0 empty empty empty 17 7 0 10 -262144 -1 -1 1
1;
#X msg 320 457 0;
#X obj 320 435 bng 15 250 50 0 empty empty empty 17 7 0 10 -262144
-1 -1;
#X obj 320 413 delay 400;
#X obj 509 756 wiringPi pin 5 output;
#X obj 1077 633 wiringPi pin 21 output;
#X obj 26 620 wiringPi pin 12 output;
#X obj 8 203 loadbang;
#X obj 92 200 delay 50;
#X obj 855 279 textfile;
#X msg 876 197 rewind;
#X obj 1010 214 f;
#X obj 1044 213 + 1;
#X floatatom 806 330 5 0 0 0 - - -;
#X obj 920 317 bng 15 250 50 0 empty empty empty 17 7 0 10 -262144
-1 -1;
#X obj 722 154 until;
#X floatatom 722 47 5 0 0 0 - - -;
#X msg 722 66 set \$1;
#X obj 722 91 t b f;
#X obj 890 388 pack f f;
#X obj 985 107 t b b;
#X obj 850 102 loadbang;
#X obj 850 124 t b b;
#X msg 1015 144 -1;
#X floatatom 983 463 5 0 0 0 - - -;
#X floatatom 1054 466 5 0 0 0 - - -;
#X floatatom 1107 467 5 0 0 0 - - -;
#X floatatom 1158 468 5 0 0 0 - - -;
#X floatatom 1208 466 5 0 0 0 - - -;
#X obj 824 100 bng 15 250 50 0 empty empty empty 17 7 0 10 -262144
-1 -1;
#X text 703 18 1ere valeur=nombre de parametres;
#X msg 722 122 10;
#X obj 1001 425 route 0 1 2 3 4 5 6 7 8 9 10 11;
#X obj 932 73 bng 15 250 50 0 empty empty empty 17 7 0 10 -262144 -1
-1;
#X obj 900 44 metro 1;
#X obj 980 507 send metro;
#X floatatom 437 -50 5 0 0 0 - - -;
#X msg 396 -12 60000;
#X floatatom 422 50 10 0 0 0 - - -;
#X obj 422 26 /;
#X obj 396 -34 bng 15 250 50 0 empty empty empty 17 7 0 10 -262144
-1 -1;
#X obj 437 -76 receive metro;
#X text 351 119 1er paramètre modifiable;
#X text 158 413 2ème paramètre modifiable;
#X floatatom 588 72 5 0 0 0 - - -;
#X floatatom 587 200 5 0 0 0 - - -;
#X obj 588 166 /;
#X obj 1059 507 send control;
#X obj 587 45 receive control;
#X obj 551 104 bng 15 250 50 0 empty empty empty 17 7 0 10 -262144
-1 -1;
#X msg 551 127 100;
#X obj 480 159 loadbang;
#X obj 588 262 *;
#X obj 437 92 s test;
#X obj 635 224 r test;
#X floatatom 588 288 5 0 0 0 - - -;
#X obj 489 90 s test1;
#X obj 425 225 r test1;
#X floatatom 520 302 5 0 0 0 - - -;
#X floatatom 590 374 10 0 0 0 - - -;
#X obj 590 351 -;
#X obj 544 268 bng 15 250 50 0 empty empty empty 17 7 0 10 -262144
-1 -1;
#X msg 834 161 read set.txt;
#X connect 0 0 1 0;
#X connect 1 0 34 0;
#X connect 2 0 8 1;
#X connect 3 0 9 0;
#X connect 4 0 6 0;
#X connect 4 0 11 0;
#X connect 5 0 8 0;
#X connect 6 0 5 0;
#X connect 6 0 45 0;
#X connect 7 0 6 0;
#X connect 7 0 11 0;
#X connect 8 0 2 0;
#X connect 8 0 3 0;
#X connect 9 0 12 0;
#X connect 10 0 9 0;
#X connect 11 0 8 0;
#X connect 11 0 12 0;
#X connect 12 0 0 0;
#X connect 13 0 4 0;
#X connect 15 0 16 0;
#X connect 17 0 16 0;
#X connect 19 0 20 0;
#X connect 20 0 18 0;
#X connect 34 0 39 0;
#X connect 34 0 38 0;
#X connect 34 1 37 0;
#X connect 34 1 39 0;
#X connect 34 2 38 0;
#X connect 34 2 40 0;
#X connect 34 3 37 0;
#X connect 34 3 40 0;
#X connect 34 4 38 0;
#X connect 34 4 41 0;
#X connect 34 5 37 0;
#X connect 34 5 41 0;
#X connect 34 6 38 0;
#X connect 34 6 42 0;
#X connect 34 7 37 0;
#X connect 34 7 42 0;
#X connect 34 8 38 0;
#X connect 34 8 35 0;
#X connect 34 9 37 0;
#X connect 34 9 35 0;
#X connect 34 10 38 0;
#X connect 34 10 36 0;
#X connect 34 11 37 0;
#X connect 34 11 36 0;
#X connect 35 0 32 0;
#X connect 36 0 47 0;
#X connect 37 0 46 0;
#X connect 38 0 33 0;
#X connect 39 0 48 0;
#X connect 40 0 29 0;
#X connect 41 0 30 0;
#X connect 42 0 31 0;
#X connect 43 0 39 0;
#X connect 43 0 40 0;
#X connect 43 0 41 0;
#X connect 43 0 37 0;
#X connect 43 0 42 0;
#X connect 43 0 35 0;
#X connect 43 0 36 0;
#X connect 43 0 38 0;
#X connect 44 0 43 0;
#X connect 45 0 44 0;
#X connect 49 0 50 0;
#X connect 49 0 17 0;
#X connect 50 0 15 0;
#X connect 51 0 55 0;
#X connect 51 0 61 1;
#X connect 51 1 56 0;
#X connect 52 0 51 0;
#X connect 53 0 54 0;
#X connect 54 0 53 1;
#X connect 54 0 61 0;
#X connect 57 0 75 0;
#X connect 58 0 59 0;
#X connect 59 0 60 0;
#X connect 60 0 73 0;
#X connect 60 1 73 0;
#X connect 61 0 74 0;
#X connect 62 0 53 0;
#X connect 62 1 51 0;
#X connect 63 0 64 0;
#X connect 63 0 76 0;
#X connect 64 0 52 0;
#X connect 64 1 104 0;
#X connect 64 1 65 0;
#X connect 65 0 53 1;
#X connect 66 0 77 0;
#X connect 67 0 89 0;
#X connect 71 0 64 0;
#X connect 73 0 57 0;
#X connect 74 0 66 0;
#X connect 74 1 67 0;
#X connect 74 2 68 0;
#X connect 74 3 69 0;
#X connect 74 4 70 0;
#X connect 75 0 62 0;
#X connect 76 0 75 0;
#X connect 78 0 81 1;
#X connect 78 0 82 0;
#X connect 79 0 81 0;
#X connect 80 0 6 1;
#X connect 80 0 95 0;
#X connect 80 0 98 0;
#X connect 81 0 80 0;
#X connect 82 0 79 0;
#X connect 83 0 78 0;
#X connect 86 0 91 0;
#X connect 86 0 88 0;
#X connect 87 0 94 0;
#X connect 88 0 87 0;
#X connect 90 0 86 0;
#X connect 91 0 92 0;
#X connect 92 0 88 1;
#X connect 93 0 88 0;
#X connect 93 0 88 1;
#X connect 93 0 94 0;
#X connect 93 0 94 1;
#X connect 94 0 97 0;
#X connect 96 0 94 1;
#X connect 97 0 102 1;
#X connect 99 0 100 0;
#X connect 100 0 102 0;
#X connect 101 0 45 1;
#X connect 102 0 101 0;
#X connect 103 0 102 1;
#X connect 103 0 102 0;
#X connect 104 0 51 0;
