#N canvas 0 0 1366 685 10;
#X obj 401 20 adc~;
#X floatatom 401 147 5 0 0 0 - - -;
#X msg 23 79 \; pd dsp \$1;
#X obj 401 241 % 12;
#X floatatom 401 273 5 0 0 0 - - -;
#X obj 400 192 i;
#X obj 401 169 + 0.499999;
#X text 460 187 round;
#X floatatom 401 213 5 0 0 0 - - -;
#X obj 197 271 tgl 15 0 empty empty empty 17 7 0 10 -262144 -1 -1 1
1;
#X obj 401 109 fiddle~ 512;
#X msg 471 213 60;
#X msg 448 56 reattack 100 0.1;
#X obj 23 31 loadbang;
#X msg 23 56 1;
#X msg 197 244 1;
#X obj 197 212 loadbang;
#X text -11 226 still under development;
#X msg 14 275 spi_init 0 1e+006;
#X obj 2 302 wiringPi;
#X msg 6 250 load_spi_driver;
#X obj 508 345 select 0 1 2 3 4 5 6 7 8 9 10 11;
#X msg 324 377 0;
#X obj 324 355 bng 15 250 50 0 empty empty empty 17 7 0 10 -262144
-1 -1;
#X obj 202 298 metro 500;
#X obj 9 204 loadbang;
#X obj 93 201 delay 50;
#X obj 909 205 textfile;
#X msg 930 123 rewind;
#X obj 1064 140 f;
#X obj 1098 139 + 1;
#X floatatom 860 256 5 0 0 0 - - -;
#X obj 974 243 bng 15 250 50 0 empty empty empty 17 7 0 10 -262144
-1 -1;
#X obj 776 80 until;
#X floatatom 776 -27 5 0 0 0 - - -;
#X msg 776 -8 set \$1;
#X obj 776 17 t b f;
#X obj 944 314 pack f f;
#X obj 1039 33 t b b;
#X obj 904 28 loadbang;
#X obj 904 50 t b b;
#X msg 1069 70 -1;
#X floatatom 1037 389 5 0 0 0 - - -;
#X obj 878 26 bng 15 250 50 0 empty empty empty 17 7 0 10 -262144 -1
-1;
#X text 757 -56 1ere valeur=nombre de parametres;
#X msg 776 48 10;
#X obj 986 -1 bng 15 250 50 0 empty empty empty 17 7 0 10 -262144 -1
-1;
#X obj 954 -30 metro 1;
#X msg 888 87 read set.txt;
#X msg 1190 -123 0;
#X floatatom 252 272 5 0 0 0 - - -;
#X obj 256 239 receive delaytime;
#X obj 1034 433 send delaytime;
#X obj 344 56 +~;
#X obj 339 99 dac~;
#X obj 457 24 loadbang;
#X obj 565 519 tgl 15 0 empty empty empty 17 7 0 10 -262144 -1 -1 0
1;
#X obj 708 523 tgl 15 0 empty empty empty 17 7 0 10 -262144 -1 -1 0
1;
#X obj 850 526 tgl 15 0 empty empty empty 17 7 0 10 -262144 -1 -1 0
1;
#X obj 987 529 tgl 15 0 empty empty empty 17 7 0 10 -262144 -1 -1 0
1;
#X obj -3 521 tgl 15 0 empty empty empty 17 7 0 10 -262144 -1 -1 0
1;
#X obj 138 523 tgl 15 0 empty empty empty 17 7 0 10 -262144 -1 -1 0
1;
#X obj 284 525 tgl 15 0 empty empty empty 17 7 0 10 -262144 -1 -1 0
1;
#X obj 425 522 tgl 15 0 empty empty empty 17 7 0 10 -262144 -1 -1 0
1;
#X text 41 565 do;
#X text 172 564 do#;
#X text 312 565 ré;
#X text 616 566 mi;
#X text 761 565 fa;
#X text 901 568 fa#;
#X text 1032 568 sol;
#X text 1143 569 sol#;
#X text 475 566 ré#;
#X obj -3 544 wiringPi pin 5 output;
#X obj 138 545 wiringPi pin 6 output;
#X obj 284 546 wiringPi pin 13 output;
#X obj 425 546 wiringPi pin 19 output;
#X obj 566 546 wiringPi pin 26 output;
#X obj 709 546 wiringPi pin 25 output;
#X obj 850 549 wiringPi pin 8 output;
#X obj 987 550 wiringPi pin 7 output;
#X obj 1124 528 tgl 15 0 empty empty empty 17 7 0 10 -262144 -1 -1
0 1;
#X obj 1124 549 wiringPi pin 12 output;
#X obj 434 643 tgl 15 0 empty empty empty 17 7 0 10 -262144 -1 -1 0
1;
#X obj 434 664 wiringPi pin 16 output;
#X obj 606 644 tgl 15 0 empty empty empty 17 7 0 10 -262144 -1 -1 0
1;
#X obj 606 665 wiringPi pin 20 output;
#X obj 767 645 tgl 15 0 empty empty empty 17 7 0 10 -262144 -1 -1 0
1;
#X obj 767 666 wiringPi pin 21 output;
#X text 453 684 la;
#X text 625 685 la#;
#X text 786 686 si;
#X obj 1055 351 route 0 1;
#X connect 0 0 10 0;
#X connect 0 0 53 0;
#X connect 0 0 53 1;
#X connect 1 0 6 0;
#X connect 3 0 4 0;
#X connect 4 0 21 0;
#X connect 5 0 8 0;
#X connect 6 0 5 0;
#X connect 8 0 3 0;
#X connect 9 0 24 0;
#X connect 10 0 1 0;
#X connect 11 0 3 0;
#X connect 12 0 10 0;
#X connect 13 0 14 0;
#X connect 14 0 2 0;
#X connect 15 0 9 0;
#X connect 16 0 15 0;
#X connect 18 0 19 0;
#X connect 20 0 19 0;
#X connect 21 0 60 0;
#X connect 21 1 61 0;
#X connect 21 2 62 0;
#X connect 21 3 63 0;
#X connect 21 4 56 0;
#X connect 21 5 57 0;
#X connect 21 6 58 0;
#X connect 21 7 59 0;
#X connect 21 8 81 0;
#X connect 21 9 83 0;
#X connect 21 10 85 0;
#X connect 21 11 87 0;
#X connect 22 0 60 0;
#X connect 22 0 61 0;
#X connect 22 0 62 0;
#X connect 22 0 63 0;
#X connect 22 0 56 0;
#X connect 22 0 57 0;
#X connect 22 0 58 0;
#X connect 22 0 59 0;
#X connect 22 0 81 0;
#X connect 22 0 83 0;
#X connect 22 0 85 0;
#X connect 22 0 87 0;
#X connect 23 0 22 0;
#X connect 24 0 23 0;
#X connect 25 0 20 0;
#X connect 25 0 26 0;
#X connect 26 0 18 0;
#X connect 27 0 31 0;
#X connect 27 0 37 1;
#X connect 27 1 32 0;
#X connect 28 0 27 0;
#X connect 29 0 30 0;
#X connect 30 0 29 1;
#X connect 30 0 37 0;
#X connect 33 0 46 0;
#X connect 34 0 35 0;
#X connect 35 0 36 0;
#X connect 36 0 45 0;
#X connect 36 1 45 0;
#X connect 37 0 92 0;
#X connect 38 0 29 0;
#X connect 38 1 27 0;
#X connect 39 0 40 0;
#X connect 39 0 47 0;
#X connect 40 0 28 0;
#X connect 40 1 48 0;
#X connect 40 1 41 0;
#X connect 41 0 29 1;
#X connect 42 0 52 0;
#X connect 43 0 40 0;
#X connect 45 0 33 0;
#X connect 46 0 38 0;
#X connect 47 0 46 0;
#X connect 48 0 27 0;
#X connect 49 0 47 0;
#X connect 50 0 24 1;
#X connect 51 0 50 0;
#X connect 53 0 54 0;
#X connect 53 0 54 1;
#X connect 55 0 12 0;
#X connect 56 0 77 0;
#X connect 57 0 78 0;
#X connect 58 0 79 0;
#X connect 59 0 80 0;
#X connect 60 0 73 0;
#X connect 61 0 74 0;
#X connect 62 0 75 0;
#X connect 63 0 76 0;
#X connect 81 0 82 0;
#X connect 83 0 84 0;
#X connect 85 0 86 0;
#X connect 87 0 88 0;
#X connect 92 0 42 0;
#X connect 92 1 49 0;
