#N canvas 2 123 1265 957 10;
#X obj 401 20 adc~;
#X msg 23 79 \; pd dsp \$1;
#X obj 56 179 s ToComPort;
#X obj 56 153 hradio 15 0 0 12 empty empty TEST 0 -8 0 12 -249585 -1
-1 0;
#X floatatom 11 180 5 0 0 0 - - -, f 5;
#X obj 401 109 fiddle~ 512;
#X msg 448 56 reattack 100 0.1;
#X obj 23 31 loadbang;
#X msg 23 56 1;
#X floatatom 533 138 5 0 0 0 - - -, f 5;
#X text 12 242 still under development;
#X msg 69 294 spi_init 0 1e+06;
#X obj 29 331 wiringPi;
#X msg 29 266 load_spi_driver;
#X obj 533 164 s amp;
#X obj 207 308 r amp;
#X obj 373 292 r amp;
#X obj 539 311 r amp;
#X obj 743 298 r amp;
#X obj 900 294 r amp;
#X obj 1075 265 r amp;
#X text 195 462 do et do#;
#X text 415 465 ré et ré#;
#X text 584 467 mi et fa;
#X text 772 463 fa# et sol;
#X text 929 456 sol# et la;
#X text 1114 461 la# et si;
#X text 224 573 Il sort du 5 V pour activisé do# re# fa sol la si
;
#X text 675 573 Il sort du 5v pour activer do ré mi fa# sol# la#;
#X obj 372 428 wiringPi pin 19 output;
#X obj 546 428 wiringPi pin 26 output;
#X obj 745 422 wiringPi pin 16 output;
#X obj 904 422 wiringPi pin 20 output;
#X obj 650 545 wiringPi pin 6 output;
#X obj 903 395 tgl 15 0 empty empty empty 17 7 0 10 -262144 -1 -1 0
1;
#X obj 1081 402 tgl 15 0 empty empty empty 17 7 0 10 -262144 -1 -1
0 1;
#X obj 415 516 tgl 15 0 empty empty empty 17 7 0 10 -262144 -1 -1 0
1;
#X obj 653 512 tgl 15 0 empty empty empty 17 7 0 10 -262144 -1 -1 0
1;
#X obj 207 404 tgl 15 0 empty empty empty 17 7 0 10 -262144 -1 -1 1
1;
#X obj 371 400 tgl 15 0 empty empty empty 17 7 0 10 -262144 -1 -1 1
1;
#X obj 541 403 tgl 15 0 empty empty empty 17 7 0 10 -262144 -1 -1 1
1;
#X obj 747 395 tgl 15 0 empty empty empty 17 7 0 10 -262144 -1 -1 0
1;
#X obj 416 543 wiringPi pin 5 output;
#X obj 1081 425 wiringPi pin 21 output;
#X obj 207 427 wiringPi pin 12 output;
#X obj 1122 301 > 100;
#X obj 28 210 loadbang;
#X obj 216 248 delay 50;
#X obj 252 343 > 60;
#X obj 417 328 > 70;
#X obj 583 347 > 80;
#X obj 787 334 > 90;
#X obj 944 330 > 100;
#X obj 332 61 dac~;
#X connect 0 0 5 0;
#X connect 0 0 53 0;
#X connect 0 1 53 1;
#X connect 3 0 4 0;
#X connect 3 0 2 0;
#X connect 5 3 9 0;
#X connect 6 0 5 0;
#X connect 7 0 8 0;
#X connect 8 0 1 0;
#X connect 9 0 14 0;
#X connect 11 0 12 0;
#X connect 13 0 12 0;
#X connect 15 0 48 0;
#X connect 16 0 49 0;
#X connect 17 0 50 0;
#X connect 18 0 51 0;
#X connect 19 0 52 0;
#X connect 20 0 45 0;
#X connect 34 0 32 0;
#X connect 35 0 43 0;
#X connect 36 0 42 0;
#X connect 37 0 33 0;
#X connect 38 0 44 0;
#X connect 39 0 29 0;
#X connect 40 0 30 0;
#X connect 41 0 31 0;
#X connect 45 0 35 0;
#X connect 46 0 13 0;
#X connect 46 0 47 0;
#X connect 47 0 11 0;
#X connect 48 0 38 0;
#X connect 49 0 39 0;
#X connect 50 0 40 0;
#X connect 51 0 41 0;
#X connect 52 0 34 0;
