#N canvas 0 0 1366 685 10;
#X obj 245 190 osc~ 440;
#X obj 142 88 loadbang;
#X msg 142 114 1;
#X msg 142 138 \; pd dsp \$1;
#X floatatom 245 166 5 0 0 0 - - -;
#X msg 85 119 0;
#X obj 597 229 textfile;
#X msg 618 147 rewind;
#X obj 752 164 f;
#X obj 786 163 + 1;
#X floatatom 548 280 5 0 0 0 - - -;
#X obj 662 267 bng 15 250 50 0 empty empty empty 17 7 0 10 -262144
-1 -1;
#X obj 632 338 pack f f;
#X obj 727 57 t b b;
#X obj 592 52 loadbang;
#X obj 592 74 t b b;
#X msg 757 94 -1;
#X floatatom 632 391 5 0 0 0 - - -;
#X obj 566 50 bng 15 250 50 0 empty empty empty 17 7 0 10 -262144 -1
-1;
#X text 445 -32 1ere valeur=nombre de parametres;
#X obj 674 23 bng 15 250 50 0 empty empty empty 17 7 0 10 -262144 -1
-1;
#X obj 642 -6 metro 1;
#X obj 632 365 route 0;
#X obj 632 418 s frq;
#X obj 245 141 r frq;
#X obj 246 270 *~;
#X obj 236 319 dac~;
#X obj 294 254 line~;
#X msg 294 234 1 500;
#X obj 294 215 loadbang;
#X msg 576 111 read set.txt;
#X connect 0 0 25 0;
#X connect 1 0 2 0;
#X connect 2 0 3 0;
#X connect 4 0 0 0;
#X connect 5 0 3 0;
#X connect 6 0 10 0;
#X connect 6 0 12 1;
#X connect 6 1 11 0;
#X connect 7 0 6 0;
#X connect 8 0 9 0;
#X connect 9 0 8 1;
#X connect 9 0 12 0;
#X connect 12 0 22 0;
#X connect 13 0 8 0;
#X connect 13 1 6 0;
#X connect 14 0 15 0;
#X connect 14 0 21 0;
#X connect 15 0 7 0;
#X connect 15 1 30 0;
#X connect 15 1 16 0;
#X connect 16 0 8 1;
#X connect 17 0 23 0;
#X connect 18 0 15 0;
#X connect 20 0 13 0;
#X connect 21 0 20 0;
#X connect 22 0 17 0;
#X connect 24 0 4 0;
#X connect 25 0 26 0;
#X connect 25 0 26 1;
#X connect 27 0 25 1;
#X connect 28 0 27 0;
#X connect 29 0 28 0;
#X connect 30 0 6 0;
