#N canvas -8 -8 1366 685 10;
#X obj 265 10 adc~;
#X msg 23 79 \; pd dsp \$1;
#X obj 265 99 fiddle~ 512;
#X msg 312 46 reattack 100 0.1;
#X obj 23 31 loadbang;
#X msg 23 56 1;
#X floatatom 377 135 5 0 0 0 - - -;
#X text 12 242 still under development;
#X msg 69 294 spi_init 0 1e+006;
#X obj 29 331 wiringPi;
#X msg 29 266 load_spi_driver;
#X obj 946 316 > 100;
#X obj 28 210 loadbang;
#X obj 216 248 delay 50;
#X obj 207 334 > 60;
#X obj 356 324 > 70;
#X obj 497 320 > 80;
#X obj 650 325 > 90;
#X obj 798 325 > 100;
#X obj 1191 318 textfile;
#X msg 1212 236 rewind;
#X obj 1346 253 f;
#X obj 1380 252 + 1;
#X floatatom 1142 369 5 0 0 0 - - -;
#X obj 1256 356 bng 15 250 50 0 empty empty empty 17 7 0 10 -262144
-1 -1;
#X obj 1164 98 until;
#X floatatom 1164 -9 5 0 0 0 - - -;
#X msg 1164 10 set \$1;
#X obj 1164 35 t b f;
#X obj 1226 427 pack f f;
#X obj 1321 146 t b b;
#X obj 1186 141 loadbang;
#X obj 1186 163 t b b;
#X msg 1351 183 -1;
#X floatatom 1319 502 5 0 0 0 - - -;
#X obj 1160 139 bng 15 250 50 0 empty empty empty 17 7 0 10 -262144
-1 -1;
#X text 1145 -38 1ere valeur=nombre de parametres;
#X msg 1164 66 10;
#X obj 1268 112 bng 15 250 50 0 empty empty empty 17 7 0 10 -262144
-1 -1;
#X obj 1236 83 metro 1;
#X msg 1170 200 read set.txt;
#X msg 1472 -10 0;
#X obj 1337 464 route 0;
#X obj 561 38 receive sens;
#X floatatom 561 72 5 0 0 0 - - -;
#X obj 960 652 > 100;
#X obj 221 670 > 60;
#X obj 370 660 > 70;
#X obj 511 656 > 80;
#X obj 664 661 > 90;
#X obj 812 661 > 100;
#X obj 221 644 r ampl;
#X obj 370 632 r ampl;
#X obj 511 632 r ampl;
#X obj 664 638 r ampl;
#X obj 812 635 r ampl;
#X obj 960 624 r ampl;
#X obj 207 308 r amp;
#X obj 356 296 r amp;
#X obj 497 296 r amp;
#X obj 650 302 r amp;
#X obj 798 299 r amp;
#X obj 946 288 r amp;
#X obj 557 136 route 0 1;
#X obj 520 191 bng 15 250 50 0 empty empty empty 17 7 0 10 -262144
-1 -1;
#X obj 593 193 bng 15 250 50 0 empty empty empty 17 7 0 10 -262144
-1 -1;
#X obj 593 168 delay 50;
#X obj 520 216 tgl 15 0 empty empty empty 17 7 0 10 -262144 -1 -1 0
86.3717;
#X obj 593 215 tgl 15 0 empty empty empty 17 7 0 10 -262144 -1 -1 0
86.3717;
#X obj 1316 546 send sens;
#X obj 377 163 s way;
#X obj 465 214 r way;
#X obj 559 224 r way;
#X obj 487 261 s amp;
#X obj 560 272 s ampl;
#X obj 560 249 spigot;
#X obj 487 237 spigot;
#X text 684 87 0 : de la main vers le coude;
#X text 684 107 1 : du coude vers la main;
#X text 702 67 sens de vibration :;
#X obj 214 52 +~;
#X obj 212 80 dac~;
#X obj 520 167 delay 50;
#X obj 317 16 loadbang;
#X text 204 484 do et do#;
#X text 385 487 ré et ré#;
#X text 543 491 mi et fa;
#X text 746 489 fa# et sol;
#X text 904 485 sol# et la;
#X text 1076 486 la# et si;
#X obj 875 381 tgl 15 0 empty empty empty 17 7 0 10 -262144 -1 -1 0
1;
#X obj 1053 388 tgl 15 0 empty empty empty 17 7 0 10 -262144 -1 -1
0 1;
#X obj 179 390 tgl 15 0 empty empty empty 17 7 0 10 -262144 -1 -1 0
1;
#X obj 343 386 tgl 15 0 empty empty empty 17 7 0 10 -262144 -1 -1 0
1;
#X obj 513 389 tgl 15 0 empty empty empty 17 7 0 10 -262144 -1 -1 0
1;
#X obj 716 381 tgl 15 0 empty empty empty 17 7 0 10 -262144 -1 -1 0
1;
#X obj 179 413 wiringPi pin 5 output;
#X obj 125 436 tgl 15 0 empty empty empty 17 7 0 10 -262144 -1 -1 0
1;
#X obj 179 461 wiringPi pin 6 output;
#X obj 344 414 wiringPi pin 13 output;
#X obj 316 437 tgl 15 0 empty empty empty 17 7 0 10 -262144 -1 -1 0
1;
#X obj 343 460 wiringPi pin 19 output;
#X obj 513 413 wiringPi pin 26 output;
#X obj 488 438 tgl 15 0 empty empty empty 17 7 0 10 -262144 -1 -1 0
1;
#X obj 512 465 wiringPi pin 25 output;
#X obj 717 408 wiringPi pin 8 output;
#X obj 697 439 tgl 15 0 empty empty empty 17 7 0 10 -262144 -1 -1 0
1;
#X obj 717 466 wiringPi pin 7 output;
#X obj 876 408 wiringPi pin 12 output;
#X obj 851 439 tgl 15 0 empty empty empty 17 7 0 10 -262144 -1 -1 0
1;
#X obj 876 464 wiringPi pin 16 output;
#X obj 1032 430 tgl 15 0 empty empty empty 17 7 0 10 -262144 -1 -1
0 1;
#X obj 1053 411 wiringPi pin 20 output;
#X obj 1053 463 wiringPi pin 21 output;
#X text 1126 818 do et do#;
#X text 960 828 ré et ré#;
#X text 789 823 mi et fa;
#X text 598 831 fa# et sol;
#X text 418 821 sol# et la;
#X text 227 821 la# et si;
#X obj 389 717 tgl 15 0 empty empty empty 17 7 0 10 -262144 -1 -1 0
1;
#X obj 204 723 tgl 15 0 empty empty empty 17 7 0 10 -262144 -1 -1 0
1;
#X obj 1101 724 tgl 15 0 empty empty empty 17 7 0 10 -262144 -1 -1
0 1;
#X obj 918 727 tgl 15 0 empty empty empty 17 7 0 10 -262144 -1 -1 0
1;
#X obj 759 721 tgl 15 0 empty empty empty 17 7 0 10 -262144 -1 -1 0
1;
#X obj 568 723 tgl 15 0 empty empty empty 17 7 0 10 -262144 -1 -1 0
1;
#X obj 1101 747 wiringPi pin 5 output;
#X obj 1080 768 tgl 15 0 empty empty empty 17 7 0 10 -262144 -1 -1
0 1;
#X obj 1101 795 wiringPi pin 6 output;
#X obj 919 755 wiringPi pin 13 output;
#X obj 895 772 tgl 15 0 empty empty empty 17 7 0 10 -262144 -1 -1 0
1;
#X obj 918 801 wiringPi pin 19 output;
#X obj 759 745 wiringPi pin 26 output;
#X obj 733 771 tgl 15 0 empty empty empty 17 7 0 10 -262144 -1 -1 0
1;
#X obj 758 797 wiringPi pin 25 output;
#X obj 569 750 wiringPi pin 8 output;
#X obj 545 779 tgl 15 0 empty empty empty 17 7 0 10 -262144 -1 -1 0
1;
#X obj 569 808 wiringPi pin 7 output;
#X obj 390 744 wiringPi pin 12 output;
#X obj 361 765 tgl 15 0 empty empty empty 17 7 0 10 -262144 -1 -1 0
1;
#X obj 390 800 wiringPi pin 16 output;
#X obj 171 757 tgl 15 0 empty empty empty 17 7 0 10 -262144 -1 -1 0
1;
#X obj 204 746 wiringPi pin 20 output;
#X obj 204 798 wiringPi pin 21 output;
#X connect 0 0 2 0;
#X connect 0 0 80 0;
#X connect 0 0 80 1;
#X connect 2 3 6 0;
#X connect 3 0 2 0;
#X connect 4 0 5 0;
#X connect 5 0 1 0;
#X connect 6 0 70 0;
#X connect 8 0 9 0;
#X connect 10 0 9 0;
#X connect 11 0 91 0;
#X connect 11 0 111 0;
#X connect 12 0 10 0;
#X connect 12 0 13 0;
#X connect 13 0 8 0;
#X connect 14 0 92 0;
#X connect 14 0 97 0;
#X connect 15 0 93 0;
#X connect 15 0 100 0;
#X connect 16 0 94 0;
#X connect 16 0 103 0;
#X connect 17 0 95 0;
#X connect 17 0 106 0;
#X connect 18 0 90 0;
#X connect 18 0 109 0;
#X connect 19 0 23 0;
#X connect 19 0 29 1;
#X connect 19 1 24 0;
#X connect 20 0 19 0;
#X connect 21 0 22 0;
#X connect 22 0 21 1;
#X connect 22 0 29 0;
#X connect 25 0 38 0;
#X connect 26 0 27 0;
#X connect 27 0 28 0;
#X connect 28 0 37 0;
#X connect 28 1 37 0;
#X connect 29 0 42 0;
#X connect 30 0 21 0;
#X connect 30 1 19 0;
#X connect 31 0 32 0;
#X connect 31 0 39 0;
#X connect 32 0 20 0;
#X connect 32 1 40 0;
#X connect 32 1 33 0;
#X connect 33 0 21 1;
#X connect 34 0 69 0;
#X connect 35 0 32 0;
#X connect 37 0 25 0;
#X connect 38 0 30 0;
#X connect 39 0 38 0;
#X connect 40 0 19 0;
#X connect 41 0 39 0;
#X connect 42 0 34 0;
#X connect 42 1 41 0;
#X connect 43 0 44 0;
#X connect 44 0 63 0;
#X connect 45 0 122 0;
#X connect 45 0 127 0;
#X connect 46 0 121 0;
#X connect 46 0 141 0;
#X connect 47 0 120 0;
#X connect 47 0 139 0;
#X connect 48 0 125 0;
#X connect 48 0 136 0;
#X connect 49 0 124 0;
#X connect 49 0 133 0;
#X connect 50 0 123 0;
#X connect 50 0 130 0;
#X connect 51 0 46 0;
#X connect 52 0 47 0;
#X connect 53 0 48 0;
#X connect 54 0 49 0;
#X connect 55 0 50 0;
#X connect 56 0 45 0;
#X connect 57 0 14 0;
#X connect 58 0 15 0;
#X connect 59 0 16 0;
#X connect 60 0 17 0;
#X connect 61 0 18 0;
#X connect 62 0 11 0;
#X connect 63 0 82 0;
#X connect 63 1 66 0;
#X connect 64 0 67 0;
#X connect 65 0 68 0;
#X connect 66 0 65 0;
#X connect 67 0 76 1;
#X connect 68 0 75 1;
#X connect 71 0 76 0;
#X connect 72 0 75 0;
#X connect 75 0 74 0;
#X connect 76 0 73 0;
#X connect 80 0 81 0;
#X connect 80 0 81 1;
#X connect 82 0 64 0;
#X connect 83 0 3 0;
#X connect 90 0 108 0;
#X connect 91 0 112 0;
#X connect 92 0 96 0;
#X connect 93 0 99 0;
#X connect 94 0 102 0;
#X connect 95 0 105 0;
#X connect 97 0 98 0;
#X connect 100 0 101 0;
#X connect 103 0 104 0;
#X connect 106 0 107 0;
#X connect 109 0 110 0;
#X connect 111 0 113 0;
#X connect 120 0 138 0;
#X connect 121 0 142 0;
#X connect 122 0 126 0;
#X connect 123 0 129 0;
#X connect 124 0 132 0;
#X connect 125 0 135 0;
#X connect 127 0 128 0;
#X connect 130 0 131 0;
#X connect 133 0 134 0;
#X connect 136 0 137 0;
#X connect 139 0 140 0;
#X connect 141 0 143 0;
