#N canvas 0 0 1366 685 10;
#X obj 247 302 hradio 15 0 0 12 empty empty TEST 0 -8 0 12 -249585
-1 -1 0;
#X floatatom 247 329 5 0 0 0 - - -;
#X obj 358 182 + 1;
#X floatatom 286 221 5 0 0 0 - - -;
#X msg 310 56 1;
#X obj 286 143 bng 15 250 50 0 empty empty empty 17 7 0 10 -262144
-1 -1;
#X floatatom 381 90 5 0 0 0 - - -;
#X obj 286 121 metro 500;
#X msg 230 69 stop;
#X obj 286 183 float;
#X obj 322 262 % 12;
#X msg 355 225 60;
#X msg 190 133 0;
#X floatatom 209 232 5 0 0 0 - - -;
#X obj 451 -23 loadbang;
#X obj 612 285 netsend;
#X msg 452 216 conect localhost 8000;
#X obj 623 169 symbol;
#X msg 612 249 send C;
#X msg 623 198 set send \$1;
#X obj 598 178 bng 15 250 50 0 empty empty empty 17 7 0 10 -262144
-1 -1;
#X obj 235 370 select 0 1 2 3 4 5 6 7 8 9 10 11;
#X msg 163 421 A;
#X msg 194 421 B;
#X msg 224 420 C;
#X msg 256 419 D;
#X msg 287 420 E;
#X msg 323 420 F;
#X msg 353 419 G;
#X msg 388 422 H;
#X msg 425 420 I;
#X msg 464 420 J;
#X msg 504 423 K;
#X msg 543 425 L;
#X obj 177 483 s ToComPort;
#X obj 623 144 r ToComPort;
#X connect 0 0 1 0;
#X connect 1 0 21 0;
#X connect 2 0 9 1;
#X connect 3 0 10 0;
#X connect 4 0 7 0;
#X connect 4 0 12 0;
#X connect 5 0 9 0;
#X connect 6 0 7 1;
#X connect 7 0 5 0;
#X connect 8 0 7 0;
#X connect 8 0 12 0;
#X connect 9 0 2 0;
#X connect 9 0 3 0;
#X connect 10 0 13 0;
#X connect 11 0 10 0;
#X connect 12 0 9 0;
#X connect 12 0 13 0;
#X connect 13 0 0 0;
#X connect 14 0 16 0;
#X connect 14 0 4 0;
#X connect 16 0 15 0;
#X connect 17 0 19 0;
#X connect 18 0 15 0;
#X connect 19 0 18 0;
#X connect 19 0 20 0;
#X connect 20 0 18 0;
#X connect 21 0 22 0;
#X connect 21 1 23 0;
#X connect 21 2 24 0;
#X connect 21 3 25 0;
#X connect 21 4 26 0;
#X connect 21 5 27 0;
#X connect 21 6 28 0;
#X connect 21 7 29 0;
#X connect 21 8 30 0;
#X connect 21 9 31 0;
#X connect 21 10 32 0;
#X connect 21 11 33 0;
#X connect 22 0 34 0;
#X connect 23 0 34 0;
#X connect 24 0 34 0;
#X connect 25 0 34 0;
#X connect 26 0 34 0;
#X connect 27 0 34 0;
#X connect 28 0 34 0;
#X connect 29 0 34 0;
#X connect 30 0 34 0;
#X connect 31 0 34 0;
#X connect 32 0 34 0;
#X connect 33 0 34 0;
#X connect 35 0 17 0;
