#N canvas 314 318 681 676 10;
#X obj 171 175 textfile;
#X msg 171 30 rewind;
#X obj 332 206 f;
#X obj 366 205 + 1;
#X obj 386 83 until;
#X floatatom 386 -24 5 0 0 0 - - -, f 5;
#X msg 386 -5 set \$1;
#X obj 386 20 t b f;
#X obj 366 244 pack f f;
#X obj 330 131 t b b;
#X obj 237 -53 loadbang;
#X obj 172 0 t b b;
#X msg 350 171 -1;
#X floatatom 203 403 5 0 0 0 - - -, f 5;
#X floatatom 262 401 5 0 0 0 - - -, f 5;
#X floatatom 328 400 5 0 0 0 - - -, f 5;
#X floatatom 377 402 5 0 0 0 - - -, f 5;
#X floatatom 430 401 5 0 0 0 - - -, f 5;
#X obj 146 -24 bng 15 250 50 0 empty empty empty 17 7 0 10 -262144
-1 -1;
#X text -6 -69 1ere valeur=nombre de parametres;
#X msg 386 51 10;
#X obj 366 285 route 0 1 2 3 4 5 6 7 8 9 10 11;
#X obj 330 107 bng 15 250 50 0 empty empty empty 17 7 0 10 -262144
-1 -1;
#X obj 315 74 metro 1;
#X obj 430 425 outlet;
#X obj 328 425 outlet;
#X obj 377 426 outlet;
#X obj 203 426 outlet;
#X obj 262 424 outlet;
#X obj 146 -47 inlet;
#X msg 315 49 0;
#X obj 315 23 r stop;
#X obj 580 312 s stop;
#X msg 204 130 read set.txt;
#X connect 0 0 8 1;
#X connect 1 0 0 0;
#X connect 2 0 3 0;
#X connect 3 0 2 1;
#X connect 3 0 8 0;
#X connect 4 0 22 0;
#X connect 5 0 6 0;
#X connect 6 0 7 0;
#X connect 7 0 20 0;
#X connect 7 1 20 0;
#X connect 8 0 21 0;
#X connect 9 0 2 0;
#X connect 9 1 0 0;
#X connect 10 0 11 0;
#X connect 10 0 23 0;
#X connect 11 0 1 0;
#X connect 11 1 33 0;
#X connect 11 1 12 0;
#X connect 12 0 2 1;
#X connect 13 0 27 0;
#X connect 14 0 28 0;
#X connect 15 0 25 0;
#X connect 16 0 26 0;
#X connect 17 0 24 0;
#X connect 18 0 11 0;
#X connect 20 0 4 0;
#X connect 21 0 13 0;
#X connect 21 1 14 0;
#X connect 21 2 15 0;
#X connect 21 3 16 0;
#X connect 21 4 17 0;
#X connect 21 12 32 0;
#X connect 22 0 9 0;
#X connect 23 0 22 0;
#X connect 29 0 18 0;
#X connect 30 0 23 0;
#X connect 31 0 30 0;
#X connect 33 0 0 0;
