#N canvas 2 95 1265 685 10;
#X obj 293 -408 bonk~;
#X obj 325 -377 unpack f f f;
#X floatatom 378 -354 5 0 0 0 - - -, f 5;
#X obj 146 -45 bng 30 250 50 0 empty empty empty 17 7 0 10 -262144
-1 -1;
#X obj 500 -327 osc~;
#X obj 501 -279 *~;
#X obj 234 -500 adc~;
#N canvas 2 88 1265 973 enveloppe 0;
#X obj 1105 230 expr $f1 + $f2 + $f3;
#X obj 965 152 f;
#X obj 825 115 t f f f;
#X obj 1090 163 t f f;
#X obj 634 -61 t b b b b b b;
#X obj 904 523 line~;
#X obj 706 523 line;
#X obj 623 -91 bng 15 250 50 0 empty empty empty 17 7 0 10 -262144
-1 -1;
#X obj 714 581 vsl 15 128 0 1 0 0 empty empty empty 0 -9 0 10 -262144
-1 -1 0 1;
#X obj 634 199 pack 1 f;
#X text 708 167 attack time;
#X obj 1419 91 inlet;
#X obj 1394 123 f 10;
#X obj 1267 83 inlet;
#X text 1229 64 sustain time;
#X obj 1242 121 f 20;
#X text 1387 66 release time;
#X obj 1108 94 inlet;
#X obj 1090 141 f 2;
#X obj 1173 382 pack 0 f;
#X obj 843 13 inlet;
#X text 1100 70 decay time;
#X text 826 37 attack time;
#X obj 825 93 f 5;
#X obj 847 292 pack 0.8 f;
#X obj 847 162 delay 5;
#X obj 1052 264 delay 27;
#X obj 903 600 outlet~;
#X obj 502 -128 inlet;
#X text 546 -129 GO!;
#X connect 0 0 26 1;
#X connect 1 0 0 0;
#X connect 2 0 9 1;
#X connect 2 1 25 1;
#X connect 2 2 1 1;
#X connect 3 0 24 1;
#X connect 3 1 0 1;
#X connect 4 0 9 0;
#X connect 4 0 25 0;
#X connect 4 0 26 0;
#X connect 4 1 23 0;
#X connect 4 2 1 0;
#X connect 4 3 18 0;
#X connect 4 4 15 0;
#X connect 4 5 12 0;
#X connect 5 0 27 0;
#X connect 6 0 8 0;
#X connect 7 0 4 0;
#X connect 9 0 5 0;
#X connect 9 0 6 0;
#X connect 11 0 12 1;
#X connect 12 0 19 1;
#X connect 13 0 15 1;
#X connect 15 0 0 2;
#X connect 17 0 18 1;
#X connect 18 0 3 0;
#X connect 19 0 5 0;
#X connect 19 0 6 0;
#X connect 20 0 23 1;
#X connect 23 0 2 0;
#X connect 24 0 5 0;
#X connect 24 0 6 0;
#X connect 25 0 24 0;
#X connect 26 0 19 0;
#X connect 28 0 7 0;
#X restore 563 -326 pd enveloppe;
#X obj 583 -537 loadbang;
#X obj 583 -498 bng 15 250 50 0 empty empty empty 17 7 0 10 -262144
-1 -1;
#X msg 583 -465 10;
#X msg 623 -416 100;
#X msg 603 -442 2;
#X msg 644 -386 20;
#X text 616 -461 attack;
#X text 633 -441 decay;
#X text 657 -417 sustain;
#X text 674 -387 release;
#X obj 483 -141 dac~;
#X obj 502 -222 *~;
#X floatatom 561 -236 5 0 1 0 - - -, f 5;
#X obj 498 -501 loadbang;
#X msg 561 -264 1;
#X obj 561 -290 loadbang;
#X obj 483 -185 +~;
#X obj 235 -431 +~;
#X msg 17 -437 \; pd dsp \$1;
#X obj 17 -485 loadbang;
#X msg 17 -460 1;
#X obj 378 -331 s amp;
#X text 5 -296 still under development;
#X msg 41 -247 spi_init 0 1e+06;
#X obj 22 -222 wiringPi;
#X msg 22 -272 load_spi_driver;
#X obj 466 -63 < 60;
#X obj 551 -34 &;
#X obj 551 -65 > 60;
#X obj 595 -65 < 70;
#X obj 646 -35 &;
#X obj 646 -66 > 70;
#X obj 690 -66 < 80;
#X obj 734 -40 &;
#X obj 734 -71 > 80;
#X obj 466 -100 r amp;
#X obj 551 -101 r amp;
#X obj 646 -102 r amp;
#X obj 734 -107 r amp;
#X obj 825 -37 &;
#X obj 825 -100 r amp;
#X obj 778 -71 < 90;
#X obj 825 -68 > 90;
#X obj 869 -68 < 100;
#X obj 925 -40 &;
#X obj 925 -107 r amp;
#X obj 925 -71 > 100;
#X obj 505 -62 < 60;
#X obj 466 -32 &;
#X obj 971 -64 > 100;
#X text 65 269 do et do#;
#X text 245 271 ré et ré#;
#X text 454 274 mi et fa;
#X text 642 270 fa# et sol;
#X text 799 263 sol# et la;
#X text 984 268 la# et si;
#X obj 39 142 tgl 15 0 empty empty empty 17 7 0 10 -262144 -1 -1 0
1;
#X obj 39 115 delay 500;
#X obj 551 -8 tgl 15 0 empty empty empty 17 7 0 10 -262144 -1 -1 0
1;
#X obj 466 -7 tgl 15 0 empty empty empty 17 7 0 10 -262144 -1 -1 0
1;
#X obj 734 -15 tgl 15 0 empty empty empty 17 7 0 10 -262144 -1 -1 0
1;
#X obj 646 -11 tgl 15 0 empty empty empty 17 7 0 10 -262144 -1 -1 0
1;
#X obj 925 -15 tgl 15 0 empty empty empty 17 7 0 10 -262144 -1 -1 0
1;
#X obj 825 -12 tgl 15 0 empty empty empty 17 7 0 10 -262144 -1 -1 0
1;
#X obj 39 164 &;
#X obj 39 187 tgl 15 0 empty empty empty 17 7 0 10 -262144 -1 -1 0
1;
#X obj 205 139 tgl 15 0 empty empty empty 17 7 0 10 -262144 -1 -1 0
1;
#X obj 205 112 delay 500;
#X obj 204 163 &;
#X obj 204 186 tgl 15 0 empty empty empty 17 7 0 10 -262144 -1 -1 0
1;
#X obj 379 139 tgl 15 0 empty empty empty 17 7 0 10 -262144 -1 -1 0
1;
#X obj 379 112 delay 500;
#X obj 378 163 &;
#X obj 378 186 tgl 15 0 empty empty empty 17 7 0 10 -262144 -1 -1 0
1;
#X obj 577 135 tgl 15 0 empty empty empty 17 7 0 10 -262144 -1 -1 0
1;
#X obj 577 108 delay 500;
#X obj 577 160 &;
#X obj 577 183 tgl 15 0 empty empty empty 17 7 0 10 -262144 -1 -1 0
1;
#X obj 744 137 tgl 15 0 empty empty empty 17 7 0 10 -262144 -1 -1 0
1;
#X obj 744 110 delay 500;
#X obj 744 158 &;
#X obj 744 181 tgl 15 0 empty empty empty 17 7 0 10 -262144 -1 -1 0
1;
#X obj 915 132 tgl 15 0 empty empty empty 17 7 0 10 -262144 -1 -1 0
1;
#X obj 915 105 delay 500;
#X obj 915 156 &;
#X obj 915 179 tgl 15 0 empty empty empty 17 7 0 10 -262144 -1 -1 0
1;
#X obj 22 -337 loadbang;
#X obj 42 -297 delay 50;
#X msg 308 -468 thresh 40 60;
#X msg 321 -442 minvel \$1;
#X obj 451 -450 arg;
#X floatatom 477 -373 5 0 0 0 - - -, f 5;
#X obj 497 -471 delay 10;
#X obj 38 208 wiringPi pin 5 output;
#X obj 15 236 wiringPi pin 6 output;
#X obj 204 211 wiringPi pin 13 output;
#X obj 190 243 wiringPi pin 19 output;
#X obj 378 211 wiringPi pin 26 output;
#X obj 365 247 wiringPi pin 25 output;
#X obj 577 205 wiringPi pin 8 output;
#X obj 557 240 wiringPi pin 7 output;
#X obj 744 204 wiringPi pin 12 output;
#X obj 729 241 wiringPi pin 16 output;
#X obj 915 205 wiringPi pin 20 output;
#X obj 900 244 wiringPi pin 21 output;
#X connect 0 1 1 0;
#X connect 1 1 3 0;
#X connect 1 1 2 0;
#X connect 2 0 29 0;
#X connect 3 0 7 0;
#X connect 3 0 64 0;
#X connect 3 0 65 0;
#X connect 3 0 75 0;
#X connect 3 0 74 0;
#X connect 3 0 78 0;
#X connect 3 0 79 0;
#X connect 3 0 82 0;
#X connect 3 0 83 0;
#X connect 3 0 86 0;
#X connect 3 0 87 0;
#X connect 3 0 90 0;
#X connect 3 0 91 0;
#X connect 4 0 5 0;
#X connect 5 0 19 0;
#X connect 6 0 0 0;
#X connect 6 0 25 0;
#X connect 6 1 25 1;
#X connect 7 0 5 1;
#X connect 8 0 9 0;
#X connect 9 0 10 0;
#X connect 9 0 12 0;
#X connect 9 0 11 0;
#X connect 9 0 13 0;
#X connect 10 0 7 1;
#X connect 11 0 7 3;
#X connect 12 0 7 2;
#X connect 13 0 7 4;
#X connect 19 0 24 1;
#X connect 20 0 19 1;
#X connect 21 0 100 0;
#X connect 21 0 96 0;
#X connect 22 0 20 0;
#X connect 23 0 22 0;
#X connect 24 0 18 0;
#X connect 24 0 18 1;
#X connect 25 0 24 0;
#X connect 27 0 28 0;
#X connect 28 0 26 0;
#X connect 31 0 32 0;
#X connect 33 0 32 0;
#X connect 34 0 56 0;
#X connect 35 0 66 0;
#X connect 36 0 35 0;
#X connect 37 0 35 1;
#X connect 38 0 69 0;
#X connect 39 0 38 0;
#X connect 40 0 38 1;
#X connect 41 0 68 0;
#X connect 42 0 41 0;
#X connect 43 0 34 0;
#X connect 43 0 55 0;
#X connect 44 0 36 0;
#X connect 44 0 37 0;
#X connect 45 0 39 0;
#X connect 45 0 40 0;
#X connect 46 0 42 0;
#X connect 46 0 49 0;
#X connect 47 0 71 0;
#X connect 48 0 50 0;
#X connect 48 0 51 0;
#X connect 49 0 41 1;
#X connect 50 0 47 0;
#X connect 51 0 47 1;
#X connect 52 0 70 0;
#X connect 53 0 54 0;
#X connect 53 0 57 0;
#X connect 54 0 52 0;
#X connect 55 0 56 1;
#X connect 56 0 67 0;
#X connect 57 0 52 1;
#X connect 64 0 72 0;
#X connect 65 0 64 0;
#X connect 66 0 76 1;
#X connect 67 0 72 1;
#X connect 68 0 84 1;
#X connect 69 0 80 1;
#X connect 70 0 92 1;
#X connect 71 0 88 1;
#X connect 72 0 73 0;
#X connect 73 0 101 0;
#X connect 73 0 102 0;
#X connect 74 0 76 0;
#X connect 75 0 74 0;
#X connect 76 0 77 0;
#X connect 77 0 103 0;
#X connect 77 0 104 0;
#X connect 78 0 80 0;
#X connect 79 0 78 0;
#X connect 80 0 81 0;
#X connect 81 0 105 0;
#X connect 81 0 106 0;
#X connect 82 0 84 0;
#X connect 83 0 82 0;
#X connect 84 0 85 0;
#X connect 85 0 107 0;
#X connect 85 0 108 0;
#X connect 86 0 88 0;
#X connect 87 0 86 0;
#X connect 88 0 89 0;
#X connect 89 0 109 0;
#X connect 89 0 110 0;
#X connect 90 0 92 0;
#X connect 91 0 90 0;
#X connect 92 0 93 0;
#X connect 93 0 111 0;
#X connect 93 0 112 0;
#X connect 94 0 95 0;
#X connect 94 0 33 0;
#X connect 95 0 31 0;
#X connect 96 0 0 0;
#X connect 97 0 0 0;
#X connect 98 0 97 0;
#X connect 98 1 99 0;
#X connect 99 0 4 0;
#X connect 100 0 99 0;
